# xmcd
#
# Track frame offsets:
#	150
#	13527
#	27387
#	43000
#	57160
#	70245
#	83507
#	98455
#	112435
#	131395
#	141992
#	153007
#	167555
#	184125
#
# Disc length: 2699 seconds
#
# Revision: 1
# Processed by: cddbd v1.5.2PL0 Copyright (c) Steve Scherf et al.
# Submitted via: audiograbber 1.83.01
#
DISCID=b10a890e
DTITLE=Georges Hamel - Compilation  Vol.2
DYEAR=1900
DGENRE=Country
TTITLE0=Caroline(Georges Hamel-Georges Hamel)
TTITLE1=Dors Petit Ange(Georges Hamel-Georges Hamel)
TTITLE2=Chante Avec Moi L'amour(Georges Hamel-Georges Hamel)
TTITLE3=Au Temps Des Roses(Georges Hamel-Georges Hamel)
TTITLE4=Mon Ami Mon Pere(Georges Hamel-Georges Hamel)
TTITLE5=Portez-lui Ces Roses(Georges Hamel-Georges Hamel)
TTITLE6=Nous Vieillirons Ensemble(Georges Hamel-Georges Hamel)
TTITLE7=Mon Gros Minou(Georges Hamel-Georges Hamel)
TTITLE8=Un Air De Printemps(Georges Hamel-Georges Hamel)
TTITLE9=Au Bout De Ma Route(Georges Hamel-Georges Hamel)
TTITLE10=Cheveux Longs, Cheveux Au Vent(Georges Hamel-Georges Hamel)
TTITLE11=Merci Mon Dieu(Georges Hamel-Georges Hamel)
TTITLE12=La Valse Des Amoureux(Georges Hamel-Georges Hamel)
TTITLE13=J'aimerais Etre Un Oiseau(Georges Hamel-Georges Hamel)
EXTD=
EXTT0=
EXTT1=
EXTT2=
EXTT3=
EXTT4=
EXTT5=
EXTT6=
EXTT7=
EXTT8=
EXTT9=
EXTT10=
EXTT11=
EXTT12=
EXTT13=
PLAYORDER=
